<svg width="84" height="74" viewBox="0 0 84 74" fill="none" xmlns="http://www.w3.org/2000/svg">
<path d="M64.3444 59.1265C66.0067 56.5493 67.4666 53.847 68.711 51.044C63.9234 65.7065 51.791 74 36.1981 74C16.2055 73.9995 0 57.4343 0 37C0 16.5657 16.2055 0 36.1961 0C42.7436 0.028261 49.1589 1.84482 54.7491 5.25347C60.3393 8.66212 64.892 13.5333 67.9155 19.3409C62.4437 10.961 52.6487 6.28508 41.0588 6.28508C36.5361 6.28787 32.0583 7.18144 27.881 8.91478C23.7036 10.6481 19.9086 13.1873 16.7126 16.3873C13.5166 19.5873 10.9822 23.3855 9.25407 27.565C7.52594 31.7444 6.63795 36.2234 6.64081 40.746C6.64081 59.7777 22.0504 72.0534 41.0593 72.0534C50.5124 72.0534 59.7307 65.3068 64.3454 59.1265" fill="#002F35"/>
<path d="M38.2461 16.1408C38.675 15.7096 38.9461 15.1463 39.0156 14.5421C39.0851 13.9378 38.949 13.3278 38.6292 12.8104C38.3094 12.293 37.8246 11.8985 37.2531 11.6905C36.6815 11.4825 36.0565 11.4731 35.479 11.664C34.9014 11.8548 34.4051 12.2346 34.07 12.7422C33.7348 13.2498 33.5805 13.8556 33.632 14.4616C33.6834 15.0677 33.9375 15.6387 34.3534 16.0826C34.7692 16.5265 35.3225 16.8173 35.9239 16.9081C31.065 18.682 26.6165 21.4233 22.8477 24.9661C19.0789 28.5089 16.0681 32.7796 13.9976 37.5198L68.1374 19.6191C63.6496 17.0481 58.6868 15.4145 53.5493 14.8169C48.4119 14.2194 43.2066 14.6705 38.2485 16.1428M25.1063 26.0049C25.1063 26.0049 20.9768 28.5049 16.4556 34.9728C16.548 34.7663 19.5326 28.1265 24.5376 25.0301C24.5376 25.0301 25.2263 25.7935 25.1063 26.0049ZM54.2026 15.6976C60.0855 15.8458 66.0109 19.2707 66.1962 19.3785C59.0321 16.0761 54.2026 16.0005 54.2026 16.0005C53.9911 15.8804 54.2026 15.6976 54.2026 15.6976Z" fill="#002F35"/>
<path d="M48.8181 49.2692C48.8013 49.1938 48.8034 49.1154 48.8242 49.0409C48.8449 48.9664 48.8837 48.8983 48.9371 48.8424L72.657 23.3789L72.7158 23.3152C72.8986 23.1346 73.1452 23.0334 73.4021 23.0336C73.5896 23.035 73.7729 23.0894 73.9308 23.1906C74.0887 23.2918 74.2148 23.4355 74.2945 23.6053C74.3741 23.7751 74.4041 23.9639 74.381 24.15C74.3579 24.3362 74.2827 24.5119 74.1639 24.6571C74.1636 24.6581 74.1636 24.6591 74.1639 24.66L74.0325 24.792L49.4421 49.4056C49.3654 49.4854 49.2623 49.5347 49.1521 49.5444C49.072 49.5514 48.9925 49.5264 48.9309 49.4748C48.8693 49.4232 48.8307 49.3493 48.8235 49.2692" fill="#002F35"/>
<path d="M51.1261 47.2208C51.1253 47.1392 51.1448 47.0587 51.1827 46.9864C51.2207 46.9142 51.2759 46.8525 51.3435 46.8068L81.4374 25.8087L81.5125 25.7554C81.7407 25.6099 82.0171 25.5602 82.2817 25.617C82.4744 25.6605 82.6508 25.7575 82.7908 25.8969C82.9307 26.0363 83.0284 26.2124 83.0727 26.4048C83.1169 26.5973 83.1059 26.7984 83.0409 26.9849C82.9759 27.1714 82.8595 27.3357 82.7052 27.4589H82.7022L82.5377 27.5657L51.7338 47.4995C51.6371 47.5646 51.52 47.5925 51.4043 47.578C51.3202 47.5675 51.2437 47.5241 51.1916 47.4574C51.1395 47.3906 51.1159 47.3059 51.1261 47.2218" fill="#002F35"/>
<path d="M70.3319 44.2787C69.6001 51.3482 66.2739 57.8955 60.9959 62.6553C55.718 67.4151 48.863 70.0496 41.7558 70.0496C34.6485 70.0496 27.7936 67.4151 22.5156 62.6553C17.2377 57.8955 13.9114 51.3482 13.1797 44.2787H70.3319Z" fill="#002F35"/>
<path d="M37.523 42.9645C37.4159 43.0342 37.2901 43.0697 37.1624 43.0663C35.9489 43.0729 34.7345 43.0729 33.5191 43.0663C33.5153 43.0664 33.5116 43.0657 33.5081 43.0642C33.5045 43.0628 33.5014 43.0607 33.4987 43.058C33.496 43.0554 33.4939 43.0522 33.4925 43.0487C33.4911 43.0452 33.4904 43.0414 33.4904 43.0376C33.4896 43.0334 33.4896 43.029 33.4904 43.0248C34.0977 41.7269 33.5428 40.5954 32.5102 39.757C31.9667 39.3178 30.818 38.5945 31.7651 37.8089C31.7879 37.7906 31.8156 37.7794 31.8447 37.7768C33.2197 37.6756 34.6003 37.6734 35.9756 37.7703C35.9807 37.7707 35.9856 37.7721 35.9901 37.7744C35.9946 37.7767 35.9986 37.7799 36.0019 37.7837C36.0051 37.7876 36.0076 37.7921 36.0091 37.7969C36.0106 37.8017 36.0112 37.8068 36.0107 37.8118C36.0111 37.814 36.0111 37.8161 36.0107 37.8183C35.649 39.294 36.5848 40.3667 37.7133 41.1216C38.6085 41.7214 38.2429 42.4818 37.524 42.9645" fill="#002F35"/>
<path d="M31.1848 43.0361C31.1604 43.0531 31.1315 43.0624 31.1018 43.0628H27.2974C27.2895 43.0626 27.2819 43.0594 27.2762 43.0538C27.2706 43.0482 27.2674 43.0406 27.2673 43.0326C27.2664 43.0287 27.2664 43.0247 27.2673 43.0208C27.4112 42.7218 27.4916 42.3962 27.5035 42.0646C27.5154 41.733 27.4585 41.4025 27.3364 41.0939C26.96 40.13 26.0519 39.6181 25.4318 39.0336C25.4269 39.0286 25.4241 39.0219 25.4241 39.0148C25.4241 39.0078 25.4269 39.0011 25.4318 38.9961C25.4352 38.9928 25.4392 38.9903 25.4437 38.9887C26.8329 38.5622 28.252 38.24 29.6892 38.0247C29.6972 38.0236 29.7054 38.0256 29.712 38.0304C29.7185 38.0352 29.7229 38.0424 29.7243 38.0504C29.7252 38.0533 29.7252 38.0564 29.7243 38.0593C29.5148 39.4472 30.413 40.3755 31.4461 41.0983C32.4629 41.8068 31.9313 42.5089 31.1813 43.0361" fill="#002F35"/>
<path d="M25.0034 40.9382C25.5044 41.2421 26.0459 41.8276 25.6329 42.4017C25.4419 42.6453 25.2174 42.8605 24.9659 43.041C24.9421 43.0589 24.9132 43.0686 24.8834 43.0687L16.9585 43.0711C16.9111 43.0711 16.9071 43.0576 16.9466 43.0306C19.0486 41.6321 21.3029 40.4772 23.666 39.5884C23.6783 39.5837 23.6918 39.5833 23.7043 39.5874C23.7168 39.5914 23.7275 39.5997 23.7347 39.6107C24.0517 40.144 24.4859 40.5981 25.0044 40.9387" fill="#002F35"/>
<path d="M39.9176 43.0355C39.942 43.0525 39.9709 43.0618 40.0006 43.0622H43.805C43.8129 43.0621 43.8205 43.0589 43.8261 43.0532C43.8318 43.0476 43.835 43.04 43.8351 43.0321C43.836 43.0282 43.836 43.0241 43.8351 43.0202C43.6912 42.7212 43.6108 42.3956 43.5989 42.064C43.587 41.7324 43.6439 41.4019 43.766 41.0933C44.1424 40.1294 45.0505 39.6175 45.6706 39.0331C45.6755 39.0281 45.6783 39.0213 45.6783 39.0143C45.6783 39.0073 45.6755 39.0005 45.6706 38.9955C45.6672 38.9923 45.6631 38.9897 45.6587 38.9881C43.3638 38.3955 41.0265 37.9814 38.6676 37.7495C38.6596 37.7486 38.6516 37.7507 38.6451 37.7555C38.6386 37.7602 38.6341 37.7672 38.6325 37.7751C38.6316 37.7782 38.6316 37.7815 38.6325 37.7845C38.842 39.1724 40.6913 40.375 39.6548 41.0983C38.638 41.8068 39.1696 42.5088 39.9196 43.036" fill="#002F35"/>
<path d="M47.3668 39.6102C47.374 39.5992 47.3847 39.5909 47.3972 39.5869C47.4097 39.5829 47.4232 39.5832 47.4355 39.5879C49.7985 40.4763 52.0528 41.6306 54.1549 43.0287C54.1944 43.0557 54.1904 43.0692 54.143 43.0692H46.2181C46.1883 43.0691 46.1594 43.0594 46.1356 43.0415C45.8841 42.861 45.6595 42.6458 45.4686 42.4022C45.056 41.83 45.5975 41.2421 46.098 40.9387C46.6165 40.5981 47.0508 40.1439 47.3678 39.6107" fill="#002F35"/>
</svg>
